<?xml version="1.0" encoding="UTF-8"?>
<!DOCTYPE svg PUBLIC "-//W3C//DTD SVG 1.1//EN" "http://www.w3.org/Graphics/SVG/1.1/DTD/svg11.dtd">
<svg version="1.2" width="190.03mm" height="110.03mm" viewBox="999 999 19003 11003" preserveAspectRatio="xMidYMid" fill-rule="evenodd" stroke-width="28.222" stroke-linejoin="round" xmlns="http://www.w3.org/2000/svg" xmlns:ooo="http://xml.openoffice.org/svg/export" xmlns:xlink="http://www.w3.org/1999/xlink" xmlns:presentation="http://sun.com/xmlns/staroffice/presentation" xmlns:smil="http://www.w3.org/2001/SMIL20/" xmlns:anim="urn:oasis:names:tc:opendocument:xmlns:animation:1.0" xml:space="preserve">
 <defs class="EmbeddedBulletChars">
  <g id="bullet-char-template-57356" transform="scale(0.00048828125,-0.00048828125)">
   <path d="M 580,1141 L 1163,571 580,0 -4,571 580,1141 Z"/>
  </g>
  <g id="bullet-char-template-57354" transform="scale(0.00048828125,-0.00048828125)">
   <path d="M 8,1128 L 1137,1128 1137,0 8,0 8,1128 Z"/>
  </g>
  <g id="bullet-char-template-10146" transform="scale(0.00048828125,-0.00048828125)">
   <path d="M 174,0 L 602,739 174,1481 1456,739 174,0 Z M 1358,739 L 309,1346 659,739 1358,739 Z"/>
  </g>
  <g id="bullet-char-template-10132" transform="scale(0.00048828125,-0.00048828125)">
   <path d="M 2015,739 L 1276,0 717,0 1260,543 174,543 174,936 1260,936 717,1481 1274,1481 2015,739 Z"/>
  </g>
  <g id="bullet-char-template-10007" transform="scale(0.00048828125,-0.00048828125)">
   <path d="M 0,-2 C -7,14 -16,27 -25,37 L 356,567 C 262,823 215,952 215,954 215,979 228,992 255,992 264,992 276,990 289,987 310,991 331,999 354,1012 L 381,999 492,748 772,1049 836,1024 860,1049 C 881,1039 901,1025 922,1006 886,937 835,863 770,784 769,783 710,716 594,584 L 774,223 C 774,196 753,168 711,139 L 727,119 C 717,90 699,76 672,76 641,76 570,178 457,381 L 164,-76 C 142,-110 111,-127 72,-127 30,-127 9,-110 8,-76 1,-67 -2,-52 -2,-32 -2,-23 -1,-13 0,-2 Z"/>
  </g>
  <g id="bullet-char-template-10004" transform="scale(0.00048828125,-0.00048828125)">
   <path d="M 285,-33 C 182,-33 111,30 74,156 52,228 41,333 41,471 41,549 55,616 82,672 116,743 169,778 240,778 293,778 328,747 346,684 L 369,508 C 377,444 397,411 428,410 L 1163,1116 C 1174,1127 1196,1133 1229,1133 1271,1133 1292,1118 1292,1087 L 1292,965 C 1292,929 1282,901 1262,881 L 442,47 C 390,-6 338,-33 285,-33 Z"/>
  </g>
  <g id="bullet-char-template-9679" transform="scale(0.00048828125,-0.00048828125)">
   <path d="M 813,0 C 632,0 489,54 383,161 276,268 223,411 223,592 223,773 276,916 383,1023 489,1130 632,1184 813,1184 992,1184 1136,1130 1245,1023 1353,916 1407,772 1407,592 1407,412 1353,268 1245,161 1136,54 992,0 813,0 Z"/>
  </g>
  <g id="bullet-char-template-8226" transform="scale(0.00048828125,-0.00048828125)">
   <path d="M 346,457 C 273,457 209,483 155,535 101,586 74,649 74,723 74,796 101,859 155,911 209,963 273,989 346,989 419,989 480,963 531,910 582,859 608,796 608,723 608,648 583,586 532,535 482,483 420,457 346,457 Z"/>
  </g>
  <g id="bullet-char-template-8211" transform="scale(0.00048828125,-0.00048828125)">
   <path d="M -4,459 L 1135,459 1135,606 -4,606 -4,459 Z"/>
  </g>
  <g id="bullet-char-template-61548" transform="scale(0.00048828125,-0.00048828125)">
   <path d="M 173,740 C 173,903 231,1043 346,1159 462,1274 601,1332 765,1332 928,1332 1067,1274 1183,1159 1299,1043 1357,903 1357,740 1357,577 1299,437 1183,322 1067,206 928,148 765,148 601,148 462,206 346,322 231,437 173,577 173,740 Z"/>
  </g>
 </defs>
 <g class="Page">
  <g class="com.sun.star.drawing.CustomShape">
   <g id="id3">
    <rect class="BoundingBox" stroke="none" fill="none" x="12986" y="9986" width="1030" height="1030"/>
    <path fill="none" stroke="rgb(0,0,0)" stroke-width="28" stroke-linejoin="round" d="M 14001,10501 C 14001,10588 13978,10675 13934,10751 13890,10827 13827,10890 13751,10934 13675,10978 13588,11001 13501,11001 13413,11001 13326,10978 13250,10934 13174,10890 13111,10827 13067,10751 13023,10675 13000,10588 13000,10501 13000,10413 13023,10326 13067,10250 13111,10174 13174,10111 13250,10067 13326,10023 13413,10000 13501,10000 13588,10000 13675,10023 13751,10067 13827,10111 13890,10174 13934,10250 13978,10326 14001,10413 14001,10501 Z"/>
   </g>
  </g>
  <g class="com.sun.star.drawing.CustomShape">
   <g id="id4">
    <rect class="BoundingBox" stroke="none" fill="none" x="12987" y="1987" width="1030" height="1030"/>
    <path fill="rgb(255,64,0)" stroke="none" d="M 14002,2502 C 14002,2589 13979,2676 13935,2752 13891,2828 13828,2891 13752,2935 13676,2979 13589,3002 13502,3002 13414,3002 13327,2979 13251,2935 13175,2891 13112,2828 13068,2752 13024,2676 13001,2589 13001,2502 13001,2414 13024,2327 13068,2251 13112,2175 13175,2112 13251,2068 13327,2024 13414,2001 13502,2001 13589,2001 13676,2024 13752,2068 13828,2112 13891,2175 13935,2251 13979,2327 14002,2414 14002,2501 L 14002,2502 Z"/>
    <path fill="none" stroke="rgb(0,0,0)" stroke-width="28" stroke-linejoin="round" d="M 14002,2502 C 14002,2589 13979,2676 13935,2752 13891,2828 13828,2891 13752,2935 13676,2979 13589,3002 13502,3002 13414,3002 13327,2979 13251,2935 13175,2891 13112,2828 13068,2752 13024,2676 13001,2589 13001,2502 13001,2414 13024,2327 13068,2251 13112,2175 13175,2112 13251,2068 13327,2024 13414,2001 13502,2001 13589,2001 13676,2024 13752,2068 13828,2112 13891,2175 13935,2251 13979,2327 14002,2414 14002,2501 L 14002,2502 Z"/>
   </g>
  </g>
  <g class="com.sun.star.drawing.CustomShape">
   <g id="id5">
    <rect class="BoundingBox" stroke="none" fill="none" x="16988" y="5988" width="1030" height="1030"/>
    <path fill="none" stroke="rgb(0,0,0)" stroke-width="28" stroke-linejoin="round" d="M 18003,6503 C 18003,6590 17980,6677 17936,6753 17892,6829 17829,6892 17753,6936 17677,6980 17590,7003 17503,7003 17415,7003 17328,6980 17252,6936 17176,6892 17113,6829 17069,6753 17025,6677 17002,6590 17002,6503 17002,6415 17025,6328 17069,6252 17113,6176 17176,6113 17252,6069 17328,6025 17415,6002 17503,6002 17590,6002 17677,6025 17753,6069 17829,6113 17892,6176 17936,6252 17980,6328 18003,6415 18003,6502 L 18003,6503 Z"/>
   </g>
  </g>
  <g class="com.sun.star.drawing.CustomShape">
   <g id="id6">
    <rect class="BoundingBox" stroke="none" fill="none" x="8989" y="5989" width="1030" height="1030"/>
    <path fill="none" stroke="rgb(0,0,0)" stroke-width="28" stroke-linejoin="round" d="M 10004,6504 C 10004,6591 9981,6678 9937,6754 9893,6830 9830,6893 9754,6937 9678,6981 9591,7004 9504,7004 9416,7004 9329,6981 9253,6937 9177,6893 9114,6830 9070,6754 9026,6678 9003,6591 9003,6504 9003,6416 9026,6329 9070,6253 9114,6177 9177,6114 9253,6070 9329,6026 9416,6003 9504,6003 9591,6003 9678,6026 9754,6070 9830,6114 9893,6177 9937,6253 9981,6329 10004,6416 10004,6503 L 10004,6504 Z"/>
   </g>
  </g>
  <g class="com.sun.star.drawing.CustomShape">
   <g id="id7">
    <rect class="BoundingBox" stroke="none" fill="none" x="9490" y="3990" width="1030" height="1030"/>
    <path fill="none" stroke="rgb(0,0,0)" stroke-width="28" stroke-linejoin="round" d="M 10505,4505 C 10505,4592 10482,4679 10438,4755 10394,4831 10331,4894 10255,4938 10179,4982 10092,5005 10005,5005 9917,5005 9830,4982 9754,4938 9678,4894 9615,4831 9571,4755 9527,4679 9504,4592 9504,4505 9504,4417 9527,4330 9571,4254 9615,4178 9678,4115 9754,4071 9830,4027 9917,4004 10005,4004 10092,4004 10179,4027 10255,4071 10331,4115 10394,4178 10438,4254 10482,4330 10505,4417 10505,4504 L 10505,4505 Z"/>
   </g>
  </g>
  <g class="com.sun.star.drawing.CustomShape">
   <g id="id8">
    <rect class="BoundingBox" stroke="none" fill="none" x="9491" y="7991" width="1030" height="1030"/>
    <path fill="none" stroke="rgb(0,0,0)" stroke-width="28" stroke-linejoin="round" d="M 10506,8506 C 10506,8593 10483,8680 10439,8756 10395,8832 10332,8895 10256,8939 10180,8983 10093,9006 10006,9006 9918,9006 9831,8983 9755,8939 9679,8895 9616,8832 9572,8756 9528,8680 9505,8593 9505,8506 9505,8418 9528,8331 9572,8255 9616,8179 9679,8116 9755,8072 9831,8028 9918,8005 10006,8005 10093,8005 10180,8028 10256,8072 10332,8116 10395,8179 10439,8255 10483,8331 10506,8418 10506,8506 Z"/>
   </g>
  </g>
  <g class="com.sun.star.drawing.CustomShape">
   <g id="id9">
    <rect class="BoundingBox" stroke="none" fill="none" x="16492" y="7992" width="1030" height="1030"/>
    <path fill="none" stroke="rgb(0,0,0)" stroke-width="28" stroke-linejoin="round" d="M 17507,8507 C 17507,8594 17484,8681 17440,8757 17396,8833 17333,8896 17257,8940 17181,8984 17094,9007 17007,9007 16919,9007 16832,8984 16756,8940 16680,8896 16617,8833 16573,8757 16529,8681 16506,8594 16506,8507 16506,8419 16529,8332 16573,8256 16617,8180 16680,8117 16756,8073 16832,8029 16919,8006 17007,8006 17094,8006 17181,8029 17257,8073 17333,8117 17396,8180 17440,8256 17484,8332 17507,8419 17507,8507 Z"/>
   </g>
  </g>
  <g class="com.sun.star.drawing.CustomShape">
   <g id="id10">
    <rect class="BoundingBox" stroke="none" fill="none" x="16493" y="3993" width="1030" height="1030"/>
    <path fill="none" stroke="rgb(0,0,0)" stroke-width="28" stroke-linejoin="round" d="M 17508,4508 C 17508,4595 17485,4682 17441,4758 17397,4834 17334,4897 17258,4941 17182,4985 17095,5008 17008,5008 16920,5008 16833,4985 16757,4941 16681,4897 16618,4834 16574,4758 16530,4682 16507,4595 16507,4508 16507,4420 16530,4333 16574,4257 16618,4181 16681,4118 16757,4074 16833,4030 16920,4007 17008,4007 17095,4007 17182,4030 17258,4074 17334,4118 17397,4181 17441,4257 17485,4333 17508,4420 17508,4507 L 17508,4508 Z"/>
   </g>
  </g>
  <g class="com.sun.star.drawing.CustomShape">
   <g id="id11">
    <rect class="BoundingBox" stroke="none" fill="none" x="14994" y="2494" width="1030" height="1030"/>
    <path fill="none" stroke="rgb(0,0,0)" stroke-width="28" stroke-linejoin="round" d="M 16009,3009 C 16009,3096 15986,3183 15942,3259 15898,3335 15835,3398 15759,3442 15683,3486 15596,3509 15509,3509 15421,3509 15334,3486 15258,3442 15182,3398 15119,3335 15075,3259 15031,3183 15008,3096 15008,3009 15008,2921 15031,2834 15075,2758 15119,2682 15182,2619 15258,2575 15334,2531 15421,2508 15509,2508 15596,2508 15683,2531 15759,2575 15835,2619 15898,2682 15942,2758 15986,2834 16009,2921 16009,3008 L 16009,3009 Z"/>
   </g>
  </g>
  <g class="com.sun.star.drawing.CustomShape">
   <g id="id12">
    <rect class="BoundingBox" stroke="none" fill="none" x="14995" y="9495" width="1030" height="1030"/>
    <path fill="none" stroke="rgb(0,0,0)" stroke-width="28" stroke-linejoin="round" d="M 16010,10010 C 16010,10097 15987,10184 15943,10260 15899,10336 15836,10399 15760,10443 15684,10487 15597,10510 15510,10510 15422,10510 15335,10487 15259,10443 15183,10399 15120,10336 15076,10260 15032,10184 15009,10097 15009,10010 15009,9922 15032,9835 15076,9759 15120,9683 15183,9620 15259,9576 15335,9532 15422,9509 15510,9509 15597,9509 15684,9532 15760,9576 15836,9620 15899,9683 15943,9759 15987,9835 16010,9922 16010,10010 Z"/>
   </g>
  </g>
  <g class="com.sun.star.drawing.CustomShape">
   <g id="id13">
    <rect class="BoundingBox" stroke="none" fill="none" x="10995" y="2495" width="1030" height="1030"/>
    <path fill="none" stroke="rgb(0,0,0)" stroke-width="28" stroke-linejoin="round" d="M 12010,3010 C 12010,3097 11987,3184 11943,3260 11899,3336 11836,3399 11760,3443 11684,3487 11597,3510 11510,3510 11422,3510 11335,3487 11259,3443 11183,3399 11120,3336 11076,3260 11032,3184 11009,3097 11009,3010 11009,2922 11032,2835 11076,2759 11120,2683 11183,2620 11259,2576 11335,2532 11422,2509 11510,2509 11597,2509 11684,2532 11760,2576 11836,2620 11899,2683 11943,2759 11987,2835 12010,2922 12010,3009 L 12010,3010 Z"/>
   </g>
  </g>
  <g class="com.sun.star.drawing.CustomShape">
   <g id="id14">
    <rect class="BoundingBox" stroke="none" fill="none" x="10996" y="9496" width="1030" height="1030"/>
    <path fill="none" stroke="rgb(0,0,0)" stroke-width="28" stroke-linejoin="round" d="M 12011,10011 C 12011,10098 11988,10185 11944,10261 11900,10337 11837,10400 11761,10444 11685,10488 11598,10511 11511,10511 11423,10511 11336,10488 11260,10444 11184,10400 11121,10337 11077,10261 11033,10185 11010,10098 11010,10011 11010,9923 11033,9836 11077,9760 11121,9684 11184,9621 11260,9577 11336,9533 11423,9510 11511,9510 11598,9510 11685,9533 11761,9577 11837,9621 11900,9684 11944,9760 11988,9836 12011,9923 12011,10011 Z"/>
   </g>
  </g>
  <g class="com.sun.star.drawing.CustomShape">
   <g id="id15">
    <rect class="BoundingBox" stroke="none" fill="none" x="3003" y="5503" width="2000" height="2000"/>
    <path fill="rgb(255,64,0)" stroke="none" d="M 5001,6503 C 5001,6678 4955,6850 4867,7002 4780,7154 4654,7280 4502,7367 4350,7455 4178,7501 4003,7501 3827,7501 3655,7455 3503,7367 3351,7280 3225,7154 3138,7002 3050,6850 3004,6678 3004,6503 3004,6327 3050,6155 3138,6003 3225,5851 3351,5725 3503,5638 3655,5550 3827,5504 4002,5504 4178,5504 4350,5550 4502,5638 4654,5725 4780,5851 4867,6003 4955,6155 5001,6327 5001,6502 L 5001,6503 Z"/>
    <path fill="none" stroke="rgb(255,64,0)" d="M 5001,6503 C 5001,6678 4955,6850 4867,7002 4780,7154 4654,7280 4502,7367 4350,7455 4178,7501 4003,7501 3827,7501 3655,7455 3503,7367 3351,7280 3225,7154 3138,7002 3050,6850 3004,6678 3004,6503 3004,6327 3050,6155 3138,6003 3225,5851 3351,5725 3503,5638 3655,5550 3827,5504 4002,5504 4178,5504 4350,5550 4502,5638 4654,5725 4780,5851 4867,6003 4955,6155 5001,6327 5001,6502 L 5001,6503 Z"/>
   </g>
  </g>
  <g class="com.sun.star.drawing.CustomShape">
   <g id="id16">
    <rect class="BoundingBox" stroke="none" fill="none" x="999" y="999" width="19003" height="11003"/>
    <path fill="none" stroke="rgb(221,221,221)" d="M 10500,12000 L 1000,12000 1000,1000 20000,1000 20000,12000 10500,12000 Z"/>
   </g>
  </g>
  <g class="com.sun.star.drawing.LineShape">
   <g id="id17">
    <rect class="BoundingBox" stroke="none" fill="none" x="3999" y="7999" width="3" height="503"/>
    <path fill="none" stroke="rgb(0,0,0)" d="M 4000,8000 L 4000,8500"/>
   </g>
  </g>
  <g class="com.sun.star.drawing.LineShape">
   <g id="id18">
    <rect class="BoundingBox" stroke="none" fill="none" x="3999" y="4499" width="3" height="503"/>
    <path fill="none" stroke="rgb(0,0,0)" d="M 4000,4500 L 4000,5000"/>
   </g>
  </g>
  <g class="com.sun.star.drawing.LineShape">
   <g id="id19">
    <rect class="BoundingBox" stroke="none" fill="none" x="5499" y="6499" width="503" height="3"/>
    <path fill="none" stroke="rgb(0,0,0)" d="M 6000,6500 L 5500,6500"/>
   </g>
  </g>
  <g class="com.sun.star.drawing.LineShape">
   <g id="id20">
    <rect class="BoundingBox" stroke="none" fill="none" x="1999" y="6499" width="503" height="3"/>
    <path fill="none" stroke="rgb(0,0,0)" d="M 2500,6500 L 2000,6500"/>
   </g>
  </g>
 </g>
</svg>